<svg width="164" height="24" viewBox="0 0 164 24" fill="none" xmlns="http://www.w3.org/2000/svg">
<g clip-path="url(#clip0_8669_211614)">
<path d="M77.2241 16.9291C76.8571 18.2905 75.4064 19.4122 73.9984 19.4122H64.5773C63.1692 19.4122 62.3159 18.299 62.6828 16.9291L66.1389 3.99128C66.5059 2.62986 67.9566 1.50818 69.3646 1.50818H78.7857C80.1937 1.50818 81.0471 2.62129 80.6802 3.99128L77.2241 16.9291Z" fill="#16C7B0"/>
<path d="M0 1.84221H10.032V3.54621H2.088V9.61822H8.28V11.3222H2.088V19.0022H0V1.84221Z" fill="black"/>
<path d="M12.2596 6.45021H14.2516V19.0022H12.2596V6.45021ZM13.2196 3.83421C12.8516 3.83421 12.5396 3.70621 12.2836 3.45021C12.0276 3.19421 11.8996 2.88221 11.8996 2.51421C11.8996 2.14621 12.0276 1.83421 12.2836 1.57821C12.5396 1.32221 12.8516 1.19421 13.2196 1.19421C13.5876 1.19421 13.8996 1.32221 14.1556 1.57821C14.4116 1.83421 14.5396 2.14621 14.5396 2.51421C14.5396 2.88221 14.4116 3.19421 14.1556 3.45021C13.8996 3.70621 13.5876 3.83421 13.2196 3.83421Z" fill="black"/>
<path d="M16.9451 6.45021H18.9371V8.44221C19.2251 7.85021 19.7051 7.33821 20.3771 6.90621C21.0651 6.45821 21.9291 6.23421 22.9691 6.23421C23.6091 6.23421 24.2011 6.33021 24.7451 6.52221C25.2891 6.69821 25.7531 6.99421 26.1371 7.41021C26.5371 7.81021 26.8411 8.33022 27.0491 8.97022C27.2731 9.61022 27.3851 10.3862 27.3851 11.2982V19.0022H25.3931V11.1542C25.3931 10.0502 25.1531 9.24222 24.6731 8.73022C24.1931 8.21822 23.4491 7.96221 22.4411 7.96221C21.9771 7.96221 21.5291 8.03421 21.0971 8.17821C20.6811 8.32221 20.3131 8.53822 19.9931 8.82622C19.6731 9.11422 19.4171 9.47422 19.2251 9.90622C19.0331 10.3382 18.9371 10.8342 18.9371 11.3942V19.0022H16.9451V6.45021Z" fill="black"/>
<path d="M35.6027 19.2182C34.7067 19.2182 33.8907 19.0662 33.1547 18.7622C32.4187 18.4582 31.7787 18.0342 31.2347 17.4902C30.6907 16.9302 30.2667 16.2582 29.9627 15.4742C29.6747 14.6902 29.5307 13.8182 29.5307 12.8582V12.6662C29.5307 11.7222 29.6747 10.8582 29.9627 10.0742C30.2507 9.27422 30.6507 8.59421 31.1627 8.03421C31.6907 7.45821 32.3147 7.01821 33.0347 6.71421C33.7547 6.39421 34.5467 6.23421 35.4107 6.23421C36.1307 6.23421 36.8267 6.35421 37.4987 6.59421C38.1867 6.81821 38.7947 7.17821 39.3227 7.67421C39.8507 8.17021 40.2667 8.81822 40.5707 9.61822C40.8907 10.4022 41.0507 11.3542 41.0507 12.4742V13.1222H31.5947C31.6427 14.5622 32.0027 15.6662 32.6747 16.4342C33.3467 17.1862 34.3307 17.5622 35.6267 17.5622C37.5947 17.5622 38.7067 16.8342 38.9627 15.3782H40.9547C40.7307 16.6422 40.1387 17.6022 39.1787 18.2582C38.2187 18.8982 37.0267 19.2182 35.6027 19.2182ZM39.0107 11.5142C38.9147 10.2182 38.5467 9.29022 37.9067 8.73022C37.2827 8.17022 36.4507 7.89021 35.4107 7.89021C34.3867 7.89021 33.5467 8.21821 32.8907 8.87422C32.2507 9.51421 31.8427 10.3942 31.6667 11.5142H39.0107Z" fill="black"/>
<path d="M43.3418 6.45021H45.3338V8.70621C45.5258 8.35421 45.7418 8.03421 45.9818 7.74621C46.2378 7.44221 46.5258 7.18621 46.8458 6.97821C47.1658 6.75421 47.5418 6.57821 47.9738 6.45021C48.4058 6.32221 48.9018 6.25021 49.4618 6.23421V8.10621C48.8378 8.13821 48.2698 8.21821 47.7578 8.34621C47.2458 8.47421 46.8058 8.69022 46.4378 8.99422C46.0858 9.29821 45.8138 9.70621 45.6218 10.2182C45.4298 10.7142 45.3338 11.3462 45.3338 12.1142V19.0022H43.3418V6.45021Z" fill="black"/>
<path d="M55.4309 17.7062L50.5109 6.45021H52.6469L56.4869 15.4502L59.9669 6.45021H62.0069L55.0709 23.3702H53.0549L55.4309 17.7062Z" fill="black"/>
<path d="M83.5162 1.84221H86.4202L91.7242 15.2102L96.8602 1.84221H99.7402V19.0022H97.6522V4.55421L91.9642 19.0022H91.3162L85.4362 4.55421V19.0022H83.5162V1.84221Z" fill="black"/>
<path d="M106.34 19.2182C105.764 19.2182 105.22 19.1462 104.708 19.0022C104.196 18.8582 103.748 18.6342 103.364 18.3302C102.996 18.0262 102.7 17.6422 102.476 17.1782C102.268 16.7142 102.164 16.1622 102.164 15.5222C102.164 14.8022 102.34 14.1942 102.692 13.6982C103.044 13.2022 103.508 12.8022 104.084 12.4982C104.676 12.1942 105.348 11.9782 106.1 11.8502C106.868 11.7062 107.652 11.6342 108.452 11.6342H110.252V10.7222C110.252 9.71422 110.044 8.99422 109.628 8.56221C109.212 8.11421 108.524 7.89021 107.564 7.89021C105.836 7.89021 104.876 8.64222 104.684 10.1462H102.692C102.756 9.42622 102.932 8.81821 103.22 8.32221C103.524 7.82621 103.9 7.42621 104.348 7.12221C104.812 6.80221 105.324 6.57821 105.884 6.45021C106.46 6.30621 107.052 6.23421 107.66 6.23421C108.252 6.23421 108.828 6.30621 109.388 6.45021C109.948 6.57821 110.436 6.81821 110.852 7.17021C111.268 7.50621 111.604 7.96222 111.86 8.53822C112.116 9.11422 112.244 9.84222 112.244 10.7222V19.0022H110.252V17.4182C109.788 18.0102 109.252 18.4582 108.644 18.7622C108.036 19.0662 107.268 19.2182 106.34 19.2182ZM106.532 17.6342C107.06 17.6342 107.548 17.5702 107.996 17.4422C108.46 17.2982 108.852 17.0982 109.172 16.8422C109.508 16.5862 109.772 16.2742 109.964 15.9062C110.156 15.5222 110.252 15.0902 110.252 14.6102V13.0502H108.524C107.9 13.0502 107.316 13.0982 106.772 13.1942C106.244 13.2742 105.78 13.4102 105.38 13.6022C104.996 13.7942 104.692 14.0502 104.468 14.3702C104.26 14.6742 104.156 15.0582 104.156 15.5222C104.156 16.1782 104.332 16.6982 104.684 17.0822C105.036 17.4502 105.652 17.6342 106.532 17.6342Z" fill="black"/>
<path d="M114.794 6.4502H116.786V8.7062C116.978 8.3542 117.194 8.0342 117.434 7.7462C117.69 7.4422 117.978 7.1862 118.298 6.9782C118.618 6.7542 118.994 6.5782 119.426 6.4502C119.858 6.3222 120.354 6.2502 120.914 6.2342V8.1062C120.29 8.1382 119.722 8.2182 119.21 8.3462C118.698 8.4742 118.258 8.6902 117.89 8.9942C117.538 9.2982 117.266 9.7062 117.074 10.2182C116.882 10.7142 116.786 11.3462 116.786 12.1142V19.0022H114.794V6.4502Z" fill="black"/>
<path d="M123.138 0.450195H125.13V12.2342L130.338 6.4502H132.666L127.29 12.2822L133.122 19.0022H130.698L125.13 12.4982V19.0022H123.138V0.450195Z" fill="black"/>
<path d="M139.425 19.2182C138.529 19.2182 137.713 19.0662 136.977 18.7622C136.241 18.4582 135.601 18.0342 135.057 17.4902C134.513 16.9302 134.089 16.2582 133.785 15.4742C133.497 14.6902 133.353 13.8182 133.353 12.8582V12.6662C133.353 11.7222 133.497 10.8582 133.785 10.0742C134.073 9.2742 134.473 8.5942 134.985 8.0342C135.513 7.4582 136.137 7.0182 136.857 6.7142C137.577 6.3942 138.369 6.2342 139.233 6.2342C139.953 6.2342 140.649 6.3542 141.321 6.5942C142.009 6.8182 142.617 7.1782 143.145 7.6742C143.673 8.1702 144.089 8.8182 144.393 9.6182C144.713 10.4022 144.873 11.3542 144.873 12.4742V13.1222H135.417C135.465 14.5622 135.825 15.6662 136.497 16.4342C137.169 17.1862 138.153 17.5622 139.449 17.5622C141.417 17.5622 142.529 16.8342 142.785 15.3782H144.777C144.553 16.6422 143.961 17.6022 143.001 18.2582C142.041 18.8982 140.849 19.2182 139.425 19.2182ZM142.833 11.5142C142.737 10.2182 142.369 9.2902 141.729 8.7302C141.105 8.1702 140.273 7.8902 139.233 7.8902C138.209 7.8902 137.369 8.2182 136.713 8.8742C136.073 9.5142 135.665 10.3942 135.489 11.5142H142.833Z" fill="black"/>
<path d="M151.144 19.1702C149.992 19.1702 149.136 18.8662 148.576 18.2582C148.032 17.6502 147.76 16.8502 147.76 15.8582V8.1302H145.96V6.4502H147.76V3.5942H149.752V6.4502H152.68V8.1302H149.752V15.6662C149.752 16.8822 150.272 17.4902 151.312 17.4902C151.632 17.4902 151.912 17.4662 152.152 17.4182C152.392 17.3702 152.624 17.3062 152.848 17.2262V18.9062C152.64 18.9862 152.408 19.0502 152.152 19.0982C151.896 19.1462 151.56 19.1702 151.144 19.1702Z" fill="black"/>
<path d="M159.068 19.2182C157.564 19.2182 156.38 18.8662 155.516 18.1622C154.668 17.4422 154.212 16.4342 154.148 15.1382H156.092C156.172 15.8902 156.428 16.4822 156.86 16.9142C157.308 17.3462 158.036 17.5622 159.044 17.5622C160.004 17.5622 160.7 17.4022 161.132 17.0822C161.564 16.7462 161.78 16.2422 161.78 15.5702C161.78 14.9142 161.532 14.4422 161.036 14.1542C160.556 13.8662 159.828 13.6342 158.852 13.4582C158.036 13.3142 157.348 13.1462 156.788 12.9542C156.228 12.7462 155.78 12.4982 155.444 12.2102C155.108 11.9222 154.86 11.5782 154.7 11.1782C154.556 10.7782 154.484 10.3062 154.484 9.7622C154.484 9.1862 154.612 8.6822 154.868 8.2502C155.124 7.8022 155.452 7.4342 155.852 7.1462C156.268 6.8422 156.724 6.6182 157.22 6.4742C157.732 6.3142 158.236 6.2342 158.732 6.2342C159.292 6.2342 159.828 6.2982 160.34 6.4262C160.852 6.5382 161.308 6.7382 161.708 7.0262C162.124 7.3142 162.468 7.6902 162.74 8.1542C163.012 8.6182 163.188 9.1862 163.268 9.8582H161.348C161.204 9.1702 160.924 8.6742 160.508 8.3702C160.108 8.0502 159.508 7.8902 158.708 7.8902C157.988 7.8902 157.412 8.0582 156.98 8.3942C156.548 8.7142 156.332 9.1462 156.332 9.6902C156.332 9.9782 156.372 10.2262 156.452 10.4342C156.548 10.6262 156.708 10.8022 156.932 10.9622C157.156 11.1062 157.452 11.2422 157.82 11.3702C158.204 11.4822 158.684 11.5862 159.26 11.6822C159.9 11.8102 160.492 11.9542 161.036 12.1142C161.58 12.2582 162.044 12.4662 162.428 12.7382C162.828 12.9942 163.132 13.3382 163.34 13.7702C163.564 14.1862 163.676 14.7302 163.676 15.4022C163.676 16.5542 163.292 17.4822 162.524 18.1862C161.756 18.8742 160.604 19.2182 159.068 19.2182Z" fill="black"/>
</g>
<defs>
<clipPath id="clip0_8669_211614">
<rect width="164" height="24" fill="white"/>
</clipPath>
</defs>
</svg>
